<?xml version="1.0" encoding="UTF-8"?>
<!DOCTYPE svg PUBLIC "-//W3C//DTD SVG 1.1//EN" "http://www.w3.org/Graphics/SVG/1.1/DTD/svg11.dtd">
<!-- Creator: CorelDRAW 2019 (64-Bit Versión de evaluación) -->
<svg xmlns="http://www.w3.org/2000/svg" xml:space="preserve" width="143.251mm" height="115.747mm" version="1.1" style="shape-rendering:geometricPrecision; text-rendering:geometricPrecision; image-rendering:optimizeQuality; fill-rule:evenodd; clip-rule:evenodd"
viewBox="0 0 3850.96 3111.58"
 xmlns:xlink="http://www.w3.org/1999/xlink">
 <defs>
  <style type="text/css">
   <![CDATA[
    .str0 {stroke:black;stroke-width:5.38;stroke-miterlimit:22.9256}
    .fil5 {fill:black}
    .fil1 {fill:black}
    .fil9 {fill:#074B83}
    .fil11 {fill:#084C83}
    .fil10 {fill:#0A4E84}
    .fil6 {fill:#5C5C5C}
    .fil13 {fill:#6D89A4}
    .fil7 {fill:#949494}
    .fil3 {fill:#ADADAD}
    .fil19 {fill:#B3B8BD}
    .fil15 {fill:#BBBDC0}
    .fil12 {fill:#C38D13}
    .fil14 {fill:#C38E16}
    .fil17 {fill:#C3901C}
    .fil16 {fill:#C3911E}
    .fil18 {fill:#C39224}
    .fil8 {fill:#C3C3C3}
    .fil22 {fill:#C49735}
    .fil21 {fill:#C49C45}
    .fil20 {fill:#C49E4E}
    .fil4 {fill:#E6E6E6}
    .fil2 {fill:white}
    .fil0 {fill:white}
   ]]>
  </style>
 </defs>
 <g id="Capa_x0020_1">
  <metadata id="CorelCorpID_0Corel-Layer"/>
  <rect class="fil0 str0" x="2.69" y="2.69" width="3845.58" height="3106.2"/>
  <rect class="fil1 str0" x="10.92" y="2.69" width="3829.11" height="929.39"/>
  <g id="_2336691146352">
   <path class="fil2" d="M10.92 785.96l0 26.5c16,10.84 10.13,8.11 31.72,11.61 29.47,-2.94 61.06,-2.25 91.67,-1.82 29.72,0.42 63.92,4.48 85.7,-9.39l46.29 -277.77c8.22,-68.15 35.72,-278.61 61.35,-319.99 107.91,-26.93 298.24,-2.53 398.58,19.72l5.92 -12.63c-2.88,-70.61 -6.22,-110.37 -48.28,-152.85 -52.01,-52.52 -77.87,-35.9 -130.91,-66.66l-397.24 0c-35.04,54.91 -103.34,547.4 -123.59,684.9 -3.13,21.23 -11.61,107.86 -18.06,90.15 -0.5,-1.37 -1.84,5.6 -3.16,8.22z"/>
   <path class="fil2" d="M2837.58 484.02c-0.95,-38.43 0.03,-156.52 46.86,-156.52 36.09,0 84.59,-0.57 100.77,28.49 26.73,119.5 -49.58,128.03 -147.63,128.03zm-194.42 300.51c39.26,18.57 95.61,10.59 140.51,8.84 8.43,-42.99 18.82,-171.59 42.72,-186.66 49.5,-18.54 130.82,-2.35 190.61,-25.74 152.42,-59.63 223.09,-369.64 -47.2,-369.64 -300.15,0 -230.61,-51.79 -281.77,267.67 -12.19,76.1 -46.67,239.37 -44.86,305.54z"/>
   <path class="fil2" d="M1417.09 476.55c-31.44,15.86 -50.7,12.77 -88.04,8.46l10.25 -28.68c-0.4,-39.85 5.32,-92.9 23.02,-126.47 195.44,-21.57 135.18,141.64 54.77,146.69zm-276.48 313.31l138.51 -0.91c20.79,-59.18 13.17,-142.17 44.12,-184.65 72.27,-12.13 125.04,4.79 193.9,-24.53 164.91,-70.22 207.07,-368.44 -45.76,-368.44l-234.78 2.26c-22.22,39.55 -95.44,504.32 -96,576.27z"/>
   <path class="fil3" d="M266.31 535.09l-46.29 277.77c-21.78,13.87 -55.98,9.81 -85.7,9.39 -30.61,-0.43 -62.2,-1.13 -91.67,1.82 30.56,25.48 133.06,8.29 174.57,13.55 -5.52,41.12 -16.51,62.4 -0.06,94.45l178.5 0c27.97,-51.49 29.53,-215.94 65.78,-251.26 52.99,-17.82 121.15,-7.27 178.98,-29.64 111.54,-43.14 166.8,-167.33 162.46,-279.03 -4.19,-107.96 -57.89,-91.56 -70.72,-149.95l-5.92 12.63c-20.67,113.84 -62.09,190.21 -141,237.67 -117.21,70.49 -231.02,23.77 -318.93,62.6z"/>
   <path class="fil2" d="M3331.39 512.47c145.5,-54.42 162.93,139.45 50.44,177.84 -135.96,46.39 -176.03,-130.87 -50.44,-177.84zm85.35 241.23c1.23,2.91 5.15,16.68 6.47,18.73 20.7,32.33 13.43,22.22 128.67,20.81l62.58 -378.72c-54.66,-18.11 -111.05,-23.18 -147.68,20.64 -1.09,1.3 -2.64,4.36 -4.42,6.14 -48.16,-84.95 -295,-61.78 -337.77,142.65 -41.76,199.59 167.73,288.43 292.17,169.75z"/>
   <path class="fil2" d="M1947.92 619.12c-40.41,120.47 -234.96,101.02 -186.78,-42.08 36.4,-108.12 232.66,-94.7 186.78,42.08zm-39.23 144.71l18.36 -18.29 -1.51 47.25 123.28 -0.27c15.93,-46.95 60.38,-333.2 59.15,-384.4 -102.66,-2.66 -105.63,-13.89 -136.96,20.45 -1.58,1.73 -3.59,4.99 -4.83,6.48 -1.26,1.51 -2.86,4.68 -4.58,6.81 -66.51,-87.24 -291.11,-60.05 -338.31,138.98 -48.48,204.44 136.3,267.16 285.39,182.99z"/>
   <path class="fil2" d="M2172.54 932.08l125.73 0c57.61,-69.1 344.22,-489.83 347.35,-524.67l-131.04 2.8c-49.9,63.25 -101.68,157.47 -151.01,208.87l-64.15 -212.58 -136.32 2.8c1.89,51.96 68.34,226.74 88.39,283.38 28.98,81.87 14.31,72.71 -26.26,130.17 -22.94,32.49 -64.32,71.49 -52.68,109.23z"/>
   <path class="fil4" d="M266.31 535.09c87.91,-38.84 201.72,7.89 318.93,-62.6 78.91,-47.46 120.33,-123.82 141,-237.67 -100.34,-22.25 -290.67,-46.65 -398.58,-19.72 -25.63,41.38 -53.13,251.84 -61.35,319.99z"/>
   <path class="fil2" d="M3629.72 793.93c46.63,0.83 86.47,5.62 123.43,-7.88 22.28,-54.39 98,-525.08 85.5,-571.09l-118.06 -2.05c-20.52,60.06 -90.52,506.46 -90.88,581.03z"/>
   <path class="fil5" d="M1947.92 619.12c45.88,-136.79 -150.38,-150.2 -186.78,-42.08 -48.18,143.11 146.37,162.56 186.78,42.08z"/>
   <path class="fil5" d="M3331.39 512.47c-125.59,46.97 -85.52,224.23 50.44,177.84 112.5,-38.39 95.06,-232.25 -50.44,-177.84z"/>
   <path class="fil5" d="M2837.58 484.02c98.05,0 174.37,-8.54 147.63,-128.03 -16.18,-29.06 -64.68,-28.49 -100.77,-28.49 -46.83,0 -47.82,118.09 -46.86,156.52z"/>
   <path class="fil5" d="M10.92 932.08l206.24 0c-16.45,-32.06 -5.47,-53.33 0.06,-94.45 -41.51,-5.27 -144.01,11.93 -174.57,-13.55 -21.59,-3.49 -15.72,-0.76 -31.72,-11.61l0 119.61z"/>
   <path class="fil5" d="M1339.3 456.34l5.38 24.3 72.41 -4.09c80.41,-5.05 140.67,-168.25 -54.77,-146.69 -17.7,33.57 -23.43,86.63 -23.02,126.47z"/>
   <path class="fil6" d="M1417.09 476.55l-72.41 4.09 -5.38 -24.3 -10.25 28.68c37.35,4.31 56.61,7.4 88.04,-8.46z"/>
   <polygon class="fil7" points="1925.54,792.79 1927.05,745.54 1908.69,763.83 "/>
  </g>
  <g id="_2336691176912">
   <polygon class="fil5" points="2.69,3108.89 24.06,3108.89 24.06,1325.64 3848.27,1327.94 3848.27,1132.4 2.69,1132.4 "/>
   <path class="fil8" d="M2013.51 2580.6c552.55,163.5 434.4,-469.02 407.24,-492.52 -73.6,-63.67 -316.72,-36.36 -364.8,66.73 -47,100.81 -73.48,332.83 -42.44,425.79z"/>
   <path class="fil9" d="M2013.51 2580.6c-31.03,-92.96 -4.56,-324.99 42.44,-425.79 48.08,-103.09 291.2,-130.4 364.8,-66.73 27.16,23.5 145.31,656.02 -407.24,492.52zm-141.74 381.21c77.82,-47.4 77.1,-235.99 91.44,-321.81 202.93,57.14 435.5,65.28 506.26,-136.32 64.41,-183.53 130.01,-490.99 -102.97,-512.17 -447.94,-40.72 -385.92,186.3 -504.03,809.64 -13.97,73.72 -28.44,108.16 9.31,160.65z"/>
   <path class="fil10" d="M3234.32 2301.5c20.82,-171.01 50.18,-238.53 226.86,-244.37 208.25,-6.88 237.68,22.57 200.98,223.78 -112.27,51.61 -299.08,20.59 -427.84,20.59zm413.51 313.27c-124.89,-40.71 -287.61,13.18 -426.74,-37.22 -21.23,-65.95 -19.9,-107.51 -5.35,-190.66 219.83,-79.94 478.49,114.97 524.23,-139.93 8.76,-48.83 12.86,-96.24 1.2,-144.8 -29.77,-123.95 -147.97,-111.01 -279.61,-111.01 -263.78,0 -311.95,215.31 -328.55,474.58 -9.11,142.28 46.81,199.02 178.7,206.77 58.7,3.45 133.98,0.45 194.8,0.81 187.04,1.11 134.25,-20.71 141.33,-58.55z"/>
   <path class="fil11" d="M2613.67 2324.17c233.37,89.45 290.13,-27.82 373.38,81.77 153.36,201.9 -239.24,197.08 -343.92,196.34 -105.26,-0.73 -106.74,-20.01 -126.47,55.45 75.81,30.41 307.11,27.51 395.21,5.7 122.74,-30.38 182.22,-131.34 162.19,-291.47 -182.7,-162.06 -217.01,-27.64 -385.91,-100.98 -84.24,-100.37 -16.6,-194.75 88.26,-210.05 184.99,-27 288.02,51.19 343.45,-47.71 -76.44,-43.67 -670.73,-113.22 -506.18,310.95z"/>
   <path class="fil12" d="M1053.78 2075.33l2.69 102.43c197.31,44.51 280.97,-173.61 462.68,125.32l-399.31 2.57c-102.51,-0.08 -142,-70.62 -191.74,-8.4 -36.66,61.82 -15.71,110.29 67.91,87.42 89.54,-24.49 20.75,-40.95 186.87,-40.42 153.37,0.49 312.09,-2.78 464.73,2.8 -35.71,314.13 -250.39,72.18 -317.82,158.24 -28.51,69.51 -14.98,117.9 71.55,90.68 111.17,-34.96 -32.24,-20.35 212.77,-44.77l97.13 -202.51c200.93,-7.5 140.89,4.56 186.49,-42.93l-305.26 -0.81c-92.24,-80.55 -89.25,-178.85 -213.73,-192.11 -65.63,-6.99 -117.43,11.4 -181.42,-9.88 -41.62,-13.84 -85.78,-73.05 -143.54,-27.64z"/>
   <path class="fil8" d="M3234.32 2301.5c128.76,0 315.57,31.02 427.84,-20.59 36.71,-201.21 7.27,-230.66 -200.98,-223.78 -176.68,5.84 -206.04,73.36 -226.86,244.37z"/>
   <path class="fil13" d="M2130.35 1905.53l-68.69 -14.15c11.47,-14.56 -37.16,-61.06 40.6,-24.34 44.3,20.92 5.89,-12.56 28.1,38.5zm45.43 2.5l11.52 -88.68 75.31 -23.02 4.24 88.04 -91.07 23.66zm-45.43 -2.5l45.43 2.5c32.4,21.59 24.39,22.6 96.16,7.98 28.61,-57.07 7.83,-78.92 72.47,-109.9 14.85,33.59 -1.72,43.54 39.07,103.52l12.17 -110.72c-84.92,-46.38 -50.36,0.42 -78.89,-63.12 -86.69,48.59 17.75,27.04 -114.2,51.95 -88.61,16.73 -25.68,-5.74 -140.93,-9.4l57.91 55.16c-111.55,13.67 -56.73,-16.17 -87.3,50.84 22.4,39.39 -13.83,28.5 38.5,39.39 117.29,24.43 50.89,-11.94 59.62,-18.19z"/>
   <path class="fil12" d="M1328.36 2987.52c22.02,24.79 -32.46,11.99 47.29,19.92 90.65,9.01 35.57,-10.62 53.74,-20.47 36.79,-98.45 -47.68,-134.31 -93.72,-91.37 -26.2,24.43 -34.46,61.36 -7.31,91.92z"/>
   <path class="fil12" d="M1338.43 1674.41c-67.1,71.07 34.39,135.04 86.54,84.65 30.91,-29.87 30.93,-65.24 0.78,-95 -52.24,-51.56 -72.13,-5.73 -87.32,10.35z"/>
   <path class="fil12" d="M1564.35 1963.39c28.88,-103.86 -38.67,-153.79 -96.13,-95.88 -55.52,55.94 -9.46,125.33 96.13,95.88z"/>
   <path class="fil14" d="M1448.76 2743.67c43.56,77.97 77.63,80.94 132.81,0 -34.98,-112.18 -109.5,-103.18 -132.81,0z"/>
   <path class="fil12" d="M1196.27 1956.59l33.12 15.35c44.34,5.13 17.19,4.22 65.26,-0.32l11.62 -115.32c-98.39,-13.63 -146.52,0.07 -110.01,100.3z"/>
   <path class="fil12" d="M813.39 2491.95c-10.01,25.56 -38.82,-29.72 -17.03,56.4 15.72,62.13 2.81,23.09 44.19,44.99 34.76,-18.07 24.05,20.68 40.59,-30.32 33.48,-103.23 -5.27,-50.83 -13.23,-66.03l-54.52 -5.04z"/>
   <path class="fil14" d="M1075.52 2981.15c40.55,40.34 108.57,14.6 69.51,-69.72 -85.9,-38.5 -112.52,26.92 -69.51,69.72z"/>
   <path class="fil14" d="M1144.12 2574.56c43.64,-87.03 -30.56,-108.04 -68.93,-69.39 -40.72,40.99 -15.66,108.59 68.93,69.39z"/>
   <path class="fil12" d="M861.56 2169.7c29.83,-40.28 31.68,51.06 23.35,-47.4 -6.63,-78.35 1.31,-12.41 -22.87,-44.69 -124.95,16.03 -89.15,114.88 -0.48,92.08z"/>
   <path class="fil12" d="M1061.66 1739.35c42.72,18.82 -41.89,29.32 55.1,15.91 62.54,-8.64 20.37,-5.69 41.36,-21.33l2.69 -42.92c-60.53,-46.1 -23.12,-36.96 -94.59,-11.43l-4.56 59.77z"/>
   <path class="fil14" d="M1276.73 2692.15c-72.26,-16.05 -61.46,-20.65 -83.05,51.52 39.86,49.34 10.54,46.96 83.24,30.49 1.88,-4.18 34.26,-10.45 -0.19,-82.01z"/>
   <path class="fil14" d="M744.79 2368.35c25.34,-97.45 0.57,-58.57 -13.34,-79.09 -91.03,-32.66 -129.51,107.69 13.34,79.09z"/>
   <polygon class="fil15" points="2175.78,1908.02 2266.85,1884.36 2262.61,1796.32 2187.3,1819.34 "/>
   <path class="fil14" d="M940.5 1877c-11.74,29.34 -14.29,56.19 8.22,74.5 102.17,40.49 119.68,-117.85 -8.22,-74.5z"/>
   <path class="fil16" d="M840.55 2975.18c54.4,-33.91 49.66,9.69 25.41,-62.97 -1.12,-0.44 -32.74,-54.4 -58.65,9.52 -21.99,54.25 8.61,37.95 33.25,53.45z"/>
   <path class="fil14" d="M743.88 1905.81c-21.78,-13.75 31.41,-57.31 -51.3,-17.25 -18.41,8.92 -35.19,-34.21 -17.06,33.62 25.32,94.66 55.14,6.76 68.36,-16.36z"/>
   <path class="fil12" d="M496.81 2366.3c25.37,-14.38 107.05,-43.4 15.83,-67.99 -64.27,-17.33 -27.08,-5.1 -33.8,17.11 -27.17,89.85 -8.24,22.37 17.96,50.88z"/>
   <path class="fil12" d="M541.36 2160.96c51.45,-4.95 50.67,23.81 60.6,-25.1 15.4,-75.89 -1.44,-26.11 -40.7,-47.39 -54.61,79.77 -18.86,44.53 -19.9,72.49z"/>
   <path class="fil12" d="M561.26 2578.23c52.29,-19.94 26.31,-0.56 47.04,-49.4 -52.96,-40.07 9.14,-16.49 -70.22,-23.2 -2.86,87.56 -0.6,45.97 23.17,72.6z"/>
   <path class="fil12" d="M974.36 2704.78c-74.18,3.73 -9.56,-12.32 -35.46,38.89 31.15,18.35 -38.86,45.25 50.07,15.31 19.87,-6.69 34.21,30.43 16.97,-33.39 -9.57,-35.41 17.87,-23.3 -31.57,-20.81z"/>
   <path class="fil17" d="M815.23 1678.1l-0.33 73.14c79.95,-16.53 70.64,-0.9 51.87,-63.09l-51.53 -10.05z"/>
   <path class="fil18" d="M682.04 2748.45c4.63,1.46 12.33,0.53 13.79,4.73 8.54,24.62 33.01,-19.34 38.87,-31 -34.88,-16.92 -72.24,-53.89 -52.65,26.27z"/>
   <path class="fil19" d="M2130.35 1905.53c-22.21,-51.05 16.2,-17.58 -28.1,-38.5 -77.75,-36.71 -29.12,9.78 -40.6,24.34l68.69 14.15z"/>
   <path class="fil20" d="M346.89 2120.65c0.8,33.45 51.73,71.91 34.88,5.95 -13.1,-51.28 -35.25,-21.3 -34.88,-5.95z"/>
   <path class="fil21" d="M303.46 2349.48c60.77,-78.08 8.65,-26.69 0,-47.1 -9.87,16.61 -71.98,-35.98 0,47.1z"/>
   <path class="fil22" d="M498.09 1905.63c-38.12,37.59 -11.38,40.87 10.17,12.45 31.76,-41.87 11.6,-33.93 -10.17,-12.45z"/>
  </g>
 </g>
</svg>
